<svg width="236" height="333" viewBox="0 0 236 333" fill="none" xmlns="http://www.w3.org/2000/svg">
<path d="M226.609 278.096H230.674V281.483H156.831V278.096H161.235C166.88 278.096 171.735 276.177 175.8 272.338C180.091 268.273 182.462 263.305 182.913 257.434V169.364H51.8254V257.772C51.8254 289.387 44.1476 310.614 28.7919 321.453C21.7915 326.421 12.7588 330.147 1.69364 332.631L0 329.583C10.1618 324.163 17.6139 315.808 22.3561 304.517C27.3241 293.226 29.8081 277.644 29.8081 257.772V68.7619C29.8081 62.8906 27.6628 57.9225 23.3723 53.8578C19.0817 49.7931 14.0008 47.7607 8.12948 47.7607H4.06474V44.3734H77.9075V47.7607H73.5041C67.6328 47.7607 62.5518 49.7931 58.2613 53.8578C54.1965 57.9225 52.0513 62.8906 51.8254 68.7619V159.202H182.913V74.859C183.139 45.9541 189.575 25.8563 202.221 14.5653C209.899 7.79075 220.286 2.93565 233.384 0L235.077 3.04856C224.916 8.46821 217.351 16.8235 212.383 28.1145C207.415 39.4054 204.931 54.9869 204.931 74.859V256.756C204.931 262.627 206.963 267.708 211.028 271.999C215.318 276.064 220.512 278.096 226.609 278.096Z" fill="#C38C2F"/>
</svg>
